<?xml version="1.0" encoding="utf-8"?><!-- Uploaded to: SVG Repo, www.svgrepo.com, Generator: SVG Repo Mixer Tools -->
<svg fill="#000000" width="800px" height="800px" viewBox="0 0 14 14" role="img" focusable="false" aria-hidden="true" xmlns="http://www.w3.org/2000/svg"><path style="fill-rule:evenodd" d="M 1,1 6.4,1 6.4,6.4 1,6.4 1,1 Z m 1.2,1.2 3,0 0,3 -3,0 0,-3 z M 1,7.6 6.4,7.6 6.4,13 1,13 1,7.6 Z m 1.2,1.2 3,0 0,3 -3,0 0,-3 z M 7.6,1 13,1 13,6.4 7.6,6.4 7.6,1 Z m 1.2,1.2 3,0 0,3 -3,0 0,-3 z m -1.2,5.4 5.4,0 0,5.4 -5.4,0 0,-5.4 z m 1.2,1.2 3,0 0,3 -3,0 0,-3 z"/></svg>